<svg xmlns="http://www.w3.org/2000/svg" viewBox="0 0 143.77 198.92"><defs><style>.cls-1{font-size:9.94px;font-family:ModernEra-Regular, Modern Era;letter-spacing:0.15em;}.cls-1,.cls-3{fill:#fff;}.cls-2{letter-spacing:0.14em;}</style></defs><title>Asset 6</title><g id="Layer_2" data-name="Layer 2"><g id="Layer_1-2" data-name="Layer 1"><text class="cls-1" transform="translate(7.63 188.1)">14 PEA<tspan class="cls-2" x="38.59" y="0">K</tspan><tspan x="46.16" y="0">S / 7 MONTHS</tspan></text><path class="cls-3" d="M71.89,97.62A49,49,0,0,1,41.73,87.18a.69.69,0,0,1-.16-.88L42.88,84a.66.66,0,0,1,.58-.33.71.71,0,0,1,.44.15A44.75,44.75,0,0,0,56,90.75l.28.1L85.08,40.63,71.5,17,56.58,42.84a.66.66,0,0,1-.59.35.68.68,0,0,1-.6-.35L48.68,31.11,27.81,67.26a.67.67,0,0,1-.59.35.7.7,0,0,1-.66-.47L25.83,65a50.78,50.78,0,0,1-2.48-10.94A48.35,48.35,0,0,1,35.62,16.18,48.79,48.79,0,0,1,120.7,48.81,50.07,50.07,0,0,1,120,57l-.61,3.54a.68.68,0,0,1-.68.58h0a.66.66,0,0,1-.59-.35L97.91,25.93,87.85,43.36h0l-.08.07L59.93,92l.44.11A44.82,44.82,0,0,0,100,83.77a.67.67,0,0,1,.43-.16A.68.68,0,0,1,101,84l1.31,2.27a.68.68,0,0,1-.17.88A48.87,48.87,0,0,1,71.89,97.62ZM71.89,4c-.71,0-1.42,0-2.13,0A44.86,44.86,0,0,0,28,57.83l.19.91,20-34.56a.69.69,0,0,1,1.2,0L56,35.92,70.9,10.11a.7.7,0,0,1,1.2,0L87.25,36.46,97.31,19a.69.69,0,0,1,.6-.35.68.68,0,0,1,.6.35l18.22,31.44V48.81A44.9,44.9,0,0,0,71.89,4Z"/><path class="cls-3" d="M55.71,75.25a.67.67,0,0,1-.59-.34.69.69,0,0,1,0-.68l5.1-8.77h-9.7a.7.7,0,0,1-.59-.34.69.69,0,0,1,0-.68L59.4,48a.68.68,0,0,1,.59-.35h3a.67.67,0,0,1,.59.34.66.66,0,0,1,0,.69L56.21,61.49h6.33l2.67-4.65a.68.68,0,0,1,.59-.34h3a.65.65,0,0,1,.59.34.69.69,0,0,1,0,.68L59.32,74.91a.68.68,0,0,1-.59.34Z"/><path class="cls-3" d="M34.52,75.22a.67.67,0,0,1-.59-.34.69.69,0,0,1,0-.68l13-22.52h-3a.68.68,0,0,1-.59-.34.69.69,0,0,1,0-.68l1.49-2.6a.68.68,0,0,1,.59-.35h7.16a.7.7,0,0,1,.59.34.69.69,0,0,1,0,.68L38.11,74.87a.68.68,0,0,1-.59.35Z"/><path class="cls-3" d="M86.6,75.18a.7.7,0,0,1-.59-.34.69.69,0,0,1,0-.68L98.88,51.69H89.94a.65.65,0,0,1-.59-.34.69.69,0,0,1,0-.68l1.5-2.6a.7.7,0,0,1,.59-.34h13.11a.66.66,0,0,1,.59.33.71.71,0,0,1,0,.69L90.2,74.84a.68.68,0,0,1-.59.34Z"/><path class="cls-3" d="M8.22,117.57H2a1,1,0,0,0-1,1V139a1,1,0,0,0,1,1H3.67a1,1,0,0,0,1-1v-7.4H8.19c4.85,0,8-2.75,8-7S13.13,117.57,8.22,117.57ZM4.67,128.12V121H8.1c3.91,0,4.41,1.88,4.41,3.52s-.5,3.58-4.41,3.58Z"/><path class="cls-3" d="M113.26,140.37A9.88,9.88,0,0,0,123,133.8a1,1,0,0,0,0-.77,1,1,0,0,0-.57-.51L120.9,132a1,1,0,0,0-1.26.6,6.35,6.35,0,0,1-6.44,4.33c-4.68,0-7.83-3.28-7.83-8.15s3.28-8.16,7.8-8.16a6.46,6.46,0,0,1,6.52,4.72A1,1,0,0,0,121,126l1.58-.52a1,1,0,0,0,.58-.51,1,1,0,0,0,0-.77,10.18,10.18,0,0,0-10-7,11.3,11.3,0,0,0-11.49,11.61C101.71,135.6,106.46,140.37,113.26,140.37Z"/><path class="cls-3" d="M21.72,140h1.67a1,1,0,0,0,1-1v-8h3.26l5.23,8.53a1,1,0,0,0,.86.48h1.9a1,1,0,0,0,.87-.52,1,1,0,0,0,0-1l-4.91-8a6.38,6.38,0,0,0,4.28-6.16c0-4.22-2.88-6.74-7.72-6.74H21.72a1,1,0,0,0-1,1V139A1,1,0,0,0,21.72,140ZM32.2,124.22c0,.81,0,3.29-3.76,3.29H24.39V121h3.9C30.89,121,32.2,122.1,32.2,124.22Z"/><path class="cls-3" d="M72.19,140.37c4,0,6.5-2.59,6.5-6.77v-15a1,1,0,0,0-1-1H76a1,1,0,0,0-1,1v15.1c0,2.16-1,3.26-2.87,3.26a2.51,2.51,0,0,1-2.81-2.76v-.23a1,1,0,0,0-.84-1l-1.66-.26a1,1,0,0,0-.81.22,1,1,0,0,0-.35.76v.44C65.69,137.85,68.3,140.37,72.19,140.37Z"/><path class="cls-3" d="M8.05,147.38H2a1,1,0,0,0-1,1v20.41a1,1,0,0,0,1,1H3.59a1,1,0,0,0,1-1v-7.4H8c4.77,0,7.85-2.75,7.85-7S12.87,147.38,8.05,147.38ZM4.59,157.93v-7.1H7.93c3.82,0,4.31,1.88,4.31,3.52s-.49,3.58-4.31,3.58Z"/><rect class="cls-3" x="83.99" y="147.38" width="3.63" height="22.4" rx="1"/><path class="cls-3" d="M131.83,139a1,1,0,0,0,1,1h1.66a1,1,0,0,0,1-1V121h5.64a1,1,0,0,0,1-1v-1.46a1,1,0,0,0-1-1h-14.9a1,1,0,0,0-1,1V120a1,1,0,0,0,1,1h5.6Z"/><path class="cls-3" d="M105.31,158a6.12,6.12,0,0,0,1.67-4.32c0-3.83-2.58-6.3-6.57-6.3H93.33a1,1,0,0,0-1,1v20.41a1,1,0,0,0,1,1h7.52a6.55,6.55,0,0,0,7-6.72A5.82,5.82,0,0,0,105.31,158Zm-4.4,8.32H96v-6.19h4.4c1.74,0,3.81.52,3.81,3A3,3,0,0,1,100.91,166.32Zm-.5-9.65H96v-5.84h4.45a2.62,2.62,0,0,1,2.94,2.76C103.35,154.74,103,156.67,100.41,156.67Z"/><path class="cls-3" d="M30,146.94c-6.43,0-11.29,5-11.29,11.61s4.75,11.6,11.29,11.6,11.23-4.88,11.23-11.6S36.37,146.94,30,146.94Zm0,3.45c4.33,0,7.6,3.51,7.6,8.16s-3.12,8.15-7.6,8.15-7.66-3.35-7.66-8.15S25.61,150.39,30,150.39Z"/><path class="cls-3" d="M141.82,150.83a1,1,0,0,0,1-1v-1.46a1,1,0,0,0-1-1H129.69a1,1,0,0,0-1,1v20.41a1,1,0,0,0,1,1h12.13a1,1,0,0,0,1-1v-1.46a1,1,0,0,0-1-1h-9.5v-6.13h8.33a1,1,0,0,0,1-1v-1.46a1,1,0,0,0-1-1h-8.33v-5.9Z"/><path class="cls-3" d="M124.44,166.32h-9.18V148.37a1,1,0,0,0-1-1h-1.64a1,1,0,0,0-1,1v20.41a1,1,0,0,0,1,1h11.81a1,1,0,0,0,1-1v-1.46A1,1,0,0,0,124.44,166.32Z"/><path class="cls-3" d="M85,140H97.35a1,1,0,0,0,1-1v-1.46a1,1,0,0,0-1-1H87.64v-6.13h8.52a1,1,0,0,0,1-1v-1.46a1,1,0,0,0-1-1H87.64V121h9.71a1,1,0,0,0,1-1v-1.46a1,1,0,0,0-1-1H85a1,1,0,0,0-1,1V139A1,1,0,0,0,85,140Z"/><path class="cls-3" d="M50.9,117.13a11.3,11.3,0,0,0-11.5,11.61,11.18,11.18,0,0,0,11.5,11.61c6.62,0,11.43-4.89,11.43-11.61A11.27,11.27,0,0,0,50.9,117.13Zm0,3.45c4.43,0,7.77,3.51,7.77,8.16s-3.2,8.15-7.77,8.15-7.84-3.35-7.84-8.15A7.83,7.83,0,0,1,50.9,120.58Z"/><path class="cls-3" d="M53.55,156.6h0c-4.1-.79-4.82-1.62-4.82-3.07,0-2.31,2.13-3.14,4.13-3.14,2.37,0,3.73,1.22,4.3,3.82a1.05,1.05,0,0,0,.46.65,1,1,0,0,0,.79.1l1.52-.44a1,1,0,0,0,.69-1.21c-1.1-4.23-3.71-6.37-7.76-6.37-4.57,0-7.76,2.71-7.76,6.59,0,4.65,4.42,6,7.75,6.64,4.49.85,4.49,2.19,4.49,3.27,0,3-3.38,3.26-4.42,3.26-2.84,0-4.41-1.27-5.09-4.1a1,1,0,0,0-.47-.63,1,1,0,0,0-.78-.1l-1.54.44a1,1,0,0,0-.7,1.21c1.14,4.4,4,6.63,8.58,6.63s8-2.82,8-6.71C61,158.67,57,157.28,53.55,156.6Z"/><path class="cls-3" d="M72.88,156.6h0c-4.1-.79-4.82-1.62-4.82-3.07,0-2.31,2.13-3.14,4.13-3.14,2.37,0,3.73,1.22,4.3,3.82a1,1,0,0,0,.47.65,1,1,0,0,0,.78.1l1.52-.44a1,1,0,0,0,.69-1.21c-1.1-4.23-3.71-6.37-7.76-6.37-4.57,0-7.76,2.71-7.76,6.59,0,4.65,4.43,6,7.75,6.64,4.49.85,4.49,2.19,4.49,3.27,0,3-3.38,3.26-4.42,3.26-2.84,0-4.41-1.27-5.09-4.1a1,1,0,0,0-.47-.63,1,1,0,0,0-.77-.1l-1.55.44a1,1,0,0,0-.69,1.21c1.14,4.4,4,6.63,8.57,6.63s8-2.82,8-6.71C80.3,158.67,76.34,157.28,72.88,156.6Z"/></g></g></svg>