<svg xmlns="http://www.w3.org/2000/svg" viewBox="0 0 1051.2 194.13"><defs><style>.cls-1{fill:none;stroke:#fff;stroke-miterlimit:10;}</style></defs><title>annapurna_8091m</title><g id="Layer_2" data-name="Layer 2"><g id="Layer_1-2" data-name="Layer 1"><path class="cls-1" d="M.32,181.66C13,171.31,21,151.54,27.61,152S48.79,133.19,54,132.72s12.71-4.71,19.3-5.18,15.06,0,26.35,2.36,15.06-1.42,23.06-2.36,16,2.36,19.76,2.36,20.71-2.83,24.47-5.65,6.59-4.24,9.42-7.06,12.64-6.47,15.47-6.47,8.11-.53,9.88-2.12,6.53-9.53,8.82-10.06,17.47,4.24,25.41,5.3,18.71-.18,27.89.88,35.47,10.24,41.29,10.76,18,3,23.65-1S349.37,92,353.26,90.25s9-1.59,12,.53,6.35-2.12,10.59-3.71,12-8.29,17.47-8.64,12.88.17,15.17-.53S417,65,420.49,65s4.94.89,8.47,2.47,9,5.3,13.41,6.36,11.48.53,14.12-5.47,4.59-8.47,7.59-11.47a67.46,67.46,0,0,0,10.59-15.71c2.65-5.65,22.06-13.59,25.59-15.18s13.06-11.82,16.94-13.58S531.85,8,536.08,6.78s10.24-4.94,12.53-5.12,2.47,1.77,4.94,2.47,10.59.18,12.88-1.59,3.71-3,6.71-1.06,3.71,3.71,6.88,4.24,12.88.53,16.06-.35S600.85,3.6,603,5s8.12,1.42,11.3,3.18,3.35,2.82,6.7,4.59,6.36,4.06,9.36,4.59,2.47,1.59,4.23,3,12.35,1.41,16.24,1.76,5.82,3.18,7.94,4.41,11.12,3.71,13.59,7.06,3.88,2.12,6,0,1.94-4.23,5.29-1.94,4.06,5.65,4.76,7.06,5.12,5.82,7.59,7.59,6.71,14.29,9.36,15.17,7.76,8.83,9.88,11.48A71,71,0,0,0,724.73,83c3.53,2.83,4.94,1.77,5.64,4.95s8,11.11,11.3,12.52,9,.71,15.35,3.53,15.35,6.71,18.88,6.89,11.47-1.77,17,2.82,7.94,7.06,13.23,7.06,20.65.35,25.06,1.94,29.12,16.41,34.94,16.24,7.94.52,12.53-2.3,12.53-15,16.76-18.35,7.42-10.94,12.89-12a69.12,69.12,0,0,1,14.11-.88c3.89,0,8.83.35,12.18,2.64s5.3,5.47,10.06,6.36,11.82,0,16.76,2.64,10.77,8.65,14,10.94a32.7,32.7,0,0,1,9.17,10.59c2.65,4.77,2.12,6.71,3.18,8.65s7.23,13.59,12.88,16.06,5.65,2.12,12,3.53.35,1.06,9.18,6.35,10.23,2.47,18.35,8.47,4.59,9.53,10.94,12"/></g></g></svg>