<svg xmlns="http://www.w3.org/2000/svg" viewBox="0 0 306.61 109.09"><defs><style>.cls-1{fill:none;stroke:#fff;stroke-miterlimit:10;}</style></defs><title>Broad Peak</title><g id="Layer_2" data-name="Layer 2"><g id="Layer_1-2" data-name="Layer 1"><path class="cls-1" d="M.28,83.92,19.85,70.47,38.73,59.81l11.35-1.23,4,2.63,6.82-.53,4.19-1,4,.18,4.72,1.57,6.46-4.54L87.48,54,92,47.23l5.59-4.37,2.62-6.47,8.57-3.49,19.74-.53L149.34.57l18.34,4.54a59.34,59.34,0,0,1,7.17,5.07,48.36,48.36,0,0,1,5.24,6.47l4.37,5.06,2.62,1.23,1.4,4.37,1.75,1.22,3.49,10,3.32,1.4L199,42.68l.53,1.92,2.62,1.4.7,1.58,29.88,17A114.83,114.83,0,0,1,243,74.31l9.26,5.24,18.35,15,13.8,1.22,2.45-1.57,3.67,2.62,1.92,1.05,1.75-1.4,12.05,12.23"/></g></g></svg>