<svg xmlns="http://www.w3.org/2000/svg" viewBox="0 0 301.8 74.01"><defs><style>.cls-1{fill:none;stroke:#fff;stroke-miterlimit:10;}</style></defs><title>Cho Oyu</title><g id="Layer_2" data-name="Layer 2"><g id="Layer_1-2" data-name="Layer 1"><polyline class="cls-1" points="0.45 72.06 1.63 69.57 1.76 67.86 3.6 67.47 5.97 65.76 7.41 63.53 9.38 62.22 11.09 60.64 12.53 60.64 13.45 59.59 15.81 58.02 17 56.44 18.18 56.05 19.62 56.05 20.93 54.08 22.38 53.16 23.56 51.45 25.66 51.19 28.16 48.17 29.73 45.8 29.73 43.57 31.57 43.18 32.88 39.76 34.2 39.24 36.3 36.35 37.74 33.46 39.05 30.44 41.29 28.73 43.39 26.76 44.44 25.71 45.23 23.09 47.33 23.09 50.74 24.66 52.97 26.11 55.21 26.11 57.04 27.03 59.41 26.11 62.03 26.76 65.97 25.58 67.29 25.98 68.99 24.53 71.49 25.71 74.25 25.58 77.27 25.45 85.67 22.43 91.71 19.8 96.04 16.79 98.14 17.05 101.29 14.95 104.71 11.53 106.68 9.43 108.12 6.15 109.43 5.23 110.35 3.65 115.21 1.42 135.17 0.5 138.06 1.42 143.97 1.55 151.19 4.97 154.73 8.25 157.23 9.7 159.99 10.61 162.88 12.85 165.76 14.03 171.15 15.87 173.38 17.84 173.64 20.86 173.64 22.96 175.61 24.53 178.5 26.11 179.94 26.11 181 27.16 181.39 29.65 181.52 31.36 184.67 32.28 186.25 33.46 187.43 33.46 189.92 33.59 194.78 34.51 197.01 37.01 197.67 38.98 199.12 39.9 200.69 39.9 203.71 41.21 206.47 46.85 212.77 50.14 220.52 50.27 226.43 52.76 229.18 56.44 234.04 58.28 237.06 58.54 238.64 60.12 241.79 60.12 244.94 59.98 248.88 61.95 252.95 63.92 255.44 64.84 257.94 62.22 260.83 63.66 262.27 64.06 264.24 65.37 266.21 66.29 268.84 67.34 272.78 67.73 276.19 69.57 279.74 71.41 282.63 73.51 284.99 73.51 286.56 72.59 287.61 71.8 289.19 72.33 290.5 71.14 292.21 71.93 293.92 72.2 296.94 72.2 301.8 72.2"/></g></g></svg>