<svg xmlns="http://www.w3.org/2000/svg" viewBox="0 0 1184.02 311.36"><defs><style>.cls-1{fill:none;stroke:#fff;stroke-miterlimit:10;}</style></defs><title>Dhaulagiri_8167m</title><g id="Layer_2" data-name="Layer 2"><g id="Layer_1-2" data-name="Layer 1"><path class="cls-1" d="M.08,229.52c12.71-2.11,16.24-.7,31.06-3.53s4.94,3.53,27.53-2.11,29.65-13.41,39.53-11.3,26.12,14.83,34.59,24.71,21.88,15.53,28.23,26.12,18.36,26.7,18.24,28.82-3.18,3.41-.47,6.59,5.76,9.29,9.06,10.47a25.28,25.28,0,0,0,8.82,1.53c3.41.12,4.94.23,5.18-3.53s4.23-11.18,7.53-14.24,4.47-4.58,5.88-3.17,17.41-15.77,18.35-19.06,1.53-8.24,3.18-9.88,4.59-12.83,5.88-14.83,3.53-2.7,4.94-3.76,19.18-17.88,20.83-20.83,2.82-6.58,4.11-6.82,4.71-1.29,8.94-6,7.3-8.71,9.65-9.18,3.3-.82,4.47-2.47a25.38,25.38,0,0,0,2.83-5.76c.23-.94,8.94.12,9.29-6.71s-.59-4.94,1.29-7.41,6.59-8.23,6.59-9.53,5.06-10.94,6.71-13.41,1.76-6.35,2.82-10.59,1.41-14.7,1.18-15.88,4.47-6.94,4.35-8.82,21.65-19.53,26.47-21.18,15.06-5.29,20.94-5.88,15.77-7.41,20.59-10.71,10.59-10.94,12.59-10.94,3.76-2,5.06-2.47,10.94-1.65,14.12-2.82,2.94-1.3,6.11-1.18,25.18.47,30.47.12,11.53-3.77,12.94-4.12.36-.47,4.59-.35,12.12-4.24,15.53-4.83,14.59-1.64,18.47-2.35,5.65-3.88,8.36-4.12,6.82.12,9.76-1.64,22.47-11.65,26-14.48,17.41-13,21.53-13.41,12.12-1.29,13.88-2,3.53-2.94,6.24-3.29,5.06-5.06,8.7-5.88,8.47.23,10.59-.12,3.77-3.77,5.18-4,4.35-.12,6-1.18S636.32.23,638.55.58s4.36,2,6,2.47,19.65,6.94,23.3,7.77,4.59,1.41,7.17,1.41,8.83,5.29,12.59,6.24,6,1.52,9.65,4.35,11.41,6.47,15.41,6.7,8.94-1.17,11.41.47,5.65,3.06,8.59,5.77,4.12,5.65,5.65,7.18a22.37,22.37,0,0,0,5.41,4.47c2.12,1.06,21.53,17.76,23.53,18.94s2.94,3.29,4.59,6,14.59,17.53,18.23,20.47,13.88,9.76,19.3,15.29,18.7,20,23.41,24,22.94,21.3,25.65,22.47,2.82,0,6.11,1.18,11.41,4,14.83,5.18,3.88-.71,7.53-.83,13.17.47,15.76,1.77,6.59,2.47,12.94,2.82,15.88,1.18,19.3,1.18,16.94,13.41,19.64,15.17,6.83,1.65,10.83,5.3,14.94,11.41,19.41,12,7.29,3.41,11.76,4.35,13.53.47,16.59,1.18,17.06,10.94,20.35,14.59,29.47,31.35,32.65,37.17,11.12,20.3,17.82,23.65,23.48,12.88,29.48,13.76,24.17,4.94,27.88,7.42,6.17,4.58,12.35,7,19.94,3.71,23.29,1.24,3.89-2.82,7.06-2.82"/></g></g></svg>