<svg xmlns="http://www.w3.org/2000/svg" viewBox="0 0 569.72 125.83"><defs><style>.cls-1{fill:none;stroke:#fff;stroke-miterlimit:10;}</style></defs><title>everest_8848m</title><g id="Layer_2" data-name="Layer 2"><g id="Layer_1-2" data-name="Layer 1"><path class="cls-1" d="M.41,98.84S2.08,96.5,4.25,96.5s2.68,1,4.52-1.17,3.84-6.69,6-7.69a34,34,0,0,1,7-2.85c2.85-.66.51-.66,3.51-2.34s3.18-3.17,5-2.67,2.17,1.34,3.34,0,.67-1.84,3-2.17a23.47,23.47,0,0,1,6-.34c2.67.17,10.2,1.17,12,.84s36.27-11,37.61-12,21.23-18,22.06-19,4.52.66,5.86.66S124.61,45,124.61,45a10.53,10.53,0,0,1,.5-2.45c.34-.67,2.29-.89,3.68-.34s1-1.45,2.62-1.67,12.54-5.46,14.15-6.46,2.57-1.17,2.9-.11.39,1.61,1.17.72a19.18,19.18,0,0,0,1.73-3.34c.39-.67,2.23-1.56,4.79-.95s1.89,1.11,3.45,1.17,3.67-.82,4-1.36,1.55-1.43,3.89-1,6.48-.46,7.23.09.54,1.08,2,.58,1.47-1.38,3.31-1.38,7.81-.12,9.11-.12,6.77-.5,8.19.08,3.21-.79,5-1.25,13.71-5.6,15-5.81,1.17-.46,2.29.12,2.47-.33,3.81-.79,1.79.38,3,.38a22.09,22.09,0,0,0,6.23-1.42c2.26-.88,2.3-2.05,4-2.05a32.13,32.13,0,0,1,3.85-.13c.87.13,7.27-2,8.81-2.71s5.1-1.72,7.19-2.89,4.56-1.25,5.31-1.79S266,5.73,266.58,4s3.09-1.63,4.93-1.92,4.8-.63,5.64-1.21,2.05-.55,4.14,1.25,8.69,4.26,9.82,4.76S291.49,9,293.37,10s2.5.83,3.17,2.17,2.89,4.77,4.43,5.27,5.31,3.72,6.69,3.88.88,3.72,2.42,4.06,5.1.33,7.48,2.42,4,4.26,5.23,4.39,5.14,1.46,6.31,3,3.26.46,4,.79a6.78,6.78,0,0,1,2.93,2.38c.92,1.34,5.05,1.09,7.31,3.6s4.76,4.89,5.52,6.89a12.7,12.7,0,0,0,3.84,5.1,7.19,7.19,0,0,1,2.84,4.77C356,61,359,62.44,361.65,64.4s7.23,5.52,8.74,7.31,2.21,2.51,3.17,2.55.8,2.89,1.76,3.1a7.24,7.24,0,0,1,3.8,1.71,5.25,5.25,0,0,0,2.59,1.59,3.81,3.81,0,0,1,2.26,2c.25.8,2,.88,2.8,1.26s1.67,7.52,3.13,8.1,2.72.42,2.93,1.13-.46,3.89,1.46,4.77,7.11,1.54,8.28,1.17a5.71,5.71,0,0,1,2.71-.3c.51.13,2,2.13,4.1,2.55s7.69,2.89,10.49,3.1,4.55.37,6.06,1.29a10.8,10.8,0,0,0,7.23.59c2-.71,4.14-.8,5.39-.13s1.63,2.09,3.43,2.55,3.34-.08,5.1,0a19.13,19.13,0,0,1,9.11,4.14c2.46,2.38,6.6,2.42,9.77.88s9.7-1.76,13.13.12,3.84,3.3,5.64,3.51,17.13,6.06,21.4,6.73a84.27,84.27,0,0,0,14.41,1.21c6.11,0,20.57-2.3,25.33-2.3s20.44.76,23.65,2.14"/></g></g></svg>