<svg xmlns="http://www.w3.org/2000/svg" viewBox="0 0 328.72 105.26"><defs><style>.cls-1{fill:none;stroke:#fff;stroke-miterlimit:10;}</style></defs><title>Gasherbrum 1</title><g id="Layer_2" data-name="Layer 2"><g id="Layer_1-2" data-name="Layer 1"><polyline class="cls-1" points="0.3 104.86 19.35 90.71 26.42 80 36.22 72.93 49.28 59.14 63.8 45.72 101.36 42.99 120.04 21.58 125.85 21.22 134.29 14.71 135.44 15.05 152.38 0.63 154.76 2.26 156.87 1.85 162.38 7.02 169.66 12.26 183.07 20.97 187.63 25.05 191.3 30.36 204.3 40.57 214.84 49.48 217.63 49.55 221.78 53.9 226 53.88 232.89 60.41 238.25 60.32 270.45 73.66 282.15 76.83 289.86 77.56 296.58 81 301.48 80.82 305.74 78.55 310 80.1 316.35 81.64 321.8 80.19 328.69 80.55"/></g></g></svg>