<svg xmlns="http://www.w3.org/2000/svg" viewBox="0 0 328.93 64.23"><defs><style>.cls-1{fill:none;stroke:#fff;stroke-miterlimit:10;}</style></defs><title>Gasherbrum 2</title><g id="Layer_2" data-name="Layer 2"><g id="Layer_1-2" data-name="Layer 1"><path class="cls-1" d="M.33,63.85,2,62.46l1.38-1.94,2-.17.23-.93,1.25-.17,2-2.61,1.71.09.84-2.4L13,54.24l3-2.55,3.65-3.44,1.15.43,4.52-3.61L27.12,44l1-.15,1.08.41,3.15-3.45,1.1.06,3.12-1.53.73-1.42.84.38,1,0,1.82-1.74.81-1.07,1.45-.23,2-.29,2-1.54,4.23-2.89,1.16,0,.34-1.77,1.88-.4.12-.7.67-1.5,1.59,0,.43.32,2.75-1.42,1.5-.26.64-1.36.67-.18.6-.66,1.31-.12,4.22-2.46L70.9,20,73,18l.83-.32.84-1.3,1.65,0,1.88,1,.79-.78,1.91.7,2.51-2.75,1.13.23.49-2.46,1.57-.38,4.54-2.48,2.26,1.67h1.3l2,2.26h2.43L107.28,19l.66,1.07,1,.34,4,3.77v.92l1.27.32L115.61,28,117.23,30l0,2.49s.23,1.45,1.3,1.47,7.67-.49,7.67-.49L134,30.08l.58-1.71L137,26.9l.23-1.48,12.32-6.86,14-8.22,10.82-6.45h.78L181,.53l1.85,0L186,6.21l1.68.86,2.72.61,1.1,1,.06,1.13,6.92,3.79L199,13l1.33,0,2.34,1.94.26,1,1.34.4,1.88,1.42,2.66,2.14,13.19.38,7.73,4.31,2.66-1.24,3.1,2.75h4.05l.46,1,3.85,1.53,9.41,1.65,1.27-1.73h1.39l.2-1.88,2.61-.06.69-1.33,1.45-.55L264,26.42l1.16-2.85,1.85-.39-.23,1.16,2,.15,1.46-.54h1.93L275,22.64l5.47.08,2.4-1,13.58-.47,3.86-1.93,13.35,1.24,8.79,2.78.54,1.54,5.71,2.93"/></g></g></svg>