<svg xmlns="http://www.w3.org/2000/svg" viewBox="0 0 309.52 104.82"><defs><style>.cls-1{fill:none;stroke:#fff;stroke-miterlimit:10;}</style></defs><title>K2</title><g id="Layer_2" data-name="Layer 2"><g id="Layer_1-2" data-name="Layer 1"><path class="cls-1" d="M.34,86.54l9.17-8.4,1.33-.38,1.63.35.62.07,1.05-.74,2.06-2.25,3.93-1.48a71.61,71.61,0,0,0,8.13-5.36c2.91-2.41,14.85-13.26,14.85-13.26l.7.27.7-.62.39.19.54-.43s1.44,2,1.6,2.06,0-.19.54.12a2.85,2.85,0,0,1,.86,1l.07.59,1.21,1.28.23.62,4,3.62.58.15.31.51,0,.74,5.68,6.14,1.12.31.16.66.89,1.29,0,.73,1,.82v.74l2,1.83v.42l2.29,1.68h2.1l1-.59,2.18.63L78.26,74l1,.85.5,2.88,1.4,1.48,1.75.73.12.43a4.74,4.74,0,0,1,.78,0,1.18,1.18,0,0,1,.78,1.05l1.12.08a2.61,2.61,0,0,1,1-.86,3.7,3.7,0,0,0,1.83-.81c.58-.55,9.06-7.66,9.06-7.66l1.63-2.69L101,66l2.33-1.79,1.24-1.63,1.6-1.13.31-.54,3.15-2.49.35-1,.7-1.13.62-.11,1.09-1.25.58.12,0-.7,1-.7L116.09,51l3.74-.59a6,6,0,0,1,3.65-2.91c2.72-.86,2.53-2,2.53-2l1.16-2.29A1.64,1.64,0,0,0,128.69,42c.35-1.16.74-2.64.74-2.64l1-.62,1.79-.9.23-1.4L133,36l.07-.78,2-2.26,0-.81.93-.59.78-.19.07-1,.78-.66.27.54.43-.31.08-.58.27-.16s.43.68.8.37,2.2-4.12,4.26-5.44l.68-.2.27.45h.74l1.65-.47.27,1,2.16-2.07.47.08,2.89-3.3,1.09.83,10.07-9.85.22-.78,1.24-.95,1,.09,7.2-6.1,1-.18.74.39L178.46.55l2.06.59h4.86l10.56,9.29.82.1,3.13,3.07h1.05l4.2,3.63v2.12l1.12,1.46.57,2,5.42,5.56a72.1,72.1,0,0,0,7.08,3.81c1.71.58,18.34,7.31,18.34,7.31l6,0,5.24,5.39,13.63,9.8.63,1.24h1.08l10.53,6.9,16.85,20.79.93.31-.21.62,4.05,5.81.15,1,1,1,11.61,12"/></g></g></svg>