<svg xmlns="http://www.w3.org/2000/svg" viewBox="0 0 578.62 147.53"><defs><style>.cls-1{fill:none;stroke:#fff;stroke-miterlimit:10;}</style></defs><title>Kanchenjunga_8586m</title><g id="Layer_2" data-name="Layer 2"><g id="Layer_1-2" data-name="Layer 1"><path class="cls-1" d="M.21,140.91c1.32-.62,2.38-.44,4.5,1s3.71.35,5.82-.18,3.27-1.32,4.59-.09a25.82,25.82,0,0,0,7.68,4.5c2.29.62,4.76,1.77,7.76-.09s5.56-6.35,8-6.35,2.29,1.15,4.58,1.24,10.59-5,12.44-5.83,2-1.14,7.5-1,13.06-.17,15.27-1.41,3.09-2,5.29-1.41,9.44-1.59,10.59-2.82.8-1.68,2.91-1.68,6-1.32,7.06-1.68-1.32-.35,4.15-.79,5.47-3.44,7.85-5,25.59-21.79,27.27-24.53c0,0,4.76,2.21,8.73,1.5s12.18-4.06,13.94-6,11-12.79,12.8-12.88,1.94-2.3,2.47-3.09,9.53-6.18,11.2-7.85.62-5.12,2-5.56,3.71,0,6-.71,1.06-2,2.21-2.73a24.05,24.05,0,0,1,5-2.47c1.76-.53,4.59-3.45,7-5.65s3.35-1.24,5.82-2.3,5-3.61,8-5.73S233,39.61,235,38.2s7.41-4.5,7.85-6.35,2.56.62,3.7-1.33,1.59-6.61,2.39-6.79,1.41.79,2.47-.18,1.85-3.79,3.26-4.67,1.24-.88,2.56-.71,3.44.27,4.5-1.85,2.74-7.68,4.41-8.82,1,.35,2.56-1.5a7,7,0,0,0,2-3.71c.27-1.15.62-1.94,1.68-1.77s11.11,0,11.64.36,1.33,2.38,3.62,5.12,2.91,4.5,3.62,2.91.18-2.12,1.94-2.47,3,.26,4.5.7,1.5.8,3,1.33,5.29.26,6.09.35,1.23,2.38,3.09,2.38,5.47-.35,6.26-1.15,2.12-2.38,3.09-2.47,2.29.27,3-.79.44-1,1.41-1.15.18.44,1.77-1.06.88-2,3.08-1.67,6.62,5,9.09,6.88,13.5,9,14.91,10.41.53,2.3,1.33,3,2.47,1.15,3.44,1.68,1.5,3.35,2.73,3.7,3.89.18,5.12,1.68,4.33,4.41,5.38,6.53,3.71,1.23,5.21,2.38,5.82,6.27,7.68,7.68,5,2.38,8.82,3.44,11,9,13.24,9.26,16.5-.35,19.23.27S447,72.08,450.21,72.61s6-.09,7.32,0,4.59,4.41,7.24,4.59,2.74-2.47,4.5-2.73,3.35-.36,5.65-.89,5.56-.44,5.91,1.15,1.32,2,2.91,2.29a44.33,44.33,0,0,0,8.82.71c4.15-.09,4-.79,5.56-1.06s2.56-.62,4.15.53,8.38,4.24,12.44,4.24,12.18.17,15.8,4.14,8.47,8.65,10.23,9.62,2.91.71,5.38,1.59,8,4.76,9.18,6.53,3.35,1.15,5.38,1.68,7.85,7.5,11.74,12,5,5,6,5.47"/></g></g></svg>