<svg xmlns="http://www.w3.org/2000/svg" viewBox="0 0 552.69 167.98"><defs><style>.cls-1{fill:none;stroke:#fff;stroke-miterlimit:10;}</style></defs><title>lhotse_8516m</title><g id="Layer_2" data-name="Layer 2"><g id="Layer_1-2" data-name="Layer 1"><path class="cls-1" d="M.06,167.49c6-.75,7.52-.25,9-3.76s-.5-5.52,5.51-7.78,12-7.52,19.06-8.52,8.27-4.51,11.53-6.77,3.77-3.76,7-2.76,7.53.75,8.78-.5S78,117.09,79.54,112.83s14-5.77,18.81-6.52,13-26.58,18.05-31.34c0,0,6,.25,6.77-2.51a26.5,26.5,0,0,1,4.6-8.52c1.5-1.68,4.09-4.43,4.51-4.85s2-.34,2.68-.92,0-1.09.83-1.76.92.51,1.92-1.25,1.34-2.51,1.59-2.84a12.88,12.88,0,0,0,2.28-2.66,5,5,0,0,1,2.36-2.4c.69-.23,1.36-.27,1.36-.75a1.32,1.32,0,0,1,.75-1.19c.4-.11.63.37.84.4a6.68,6.68,0,0,0,2.3-1.34c.25-.42.46-.61.62-.44s.19.33.55.38-.53-.11.69-.11a5.69,5.69,0,0,1,3.32,1.42c.67.63,6,6.25,7.62,9.66,0,0,1.11.31,1.45-.13s.48-1.78,1.19-2.07.94-.75,1.31-.67.48.48.71.73a.41.41,0,0,0,.71-.14c.15-.34.11-1.65.44-1.95s.48-.41.84,0,.48.5.79.19.21-.42.4-.79,0-.59.46-.38.33.71.73.69,2.36-3.2,2.44-3.72.67-1.32,1-1.17,0,.27.54.23.67-.35.9-.73.44-.17.88-.17a1.88,1.88,0,0,0,1.25-.75c0-.21.42-.42.84-.42s.35.25.77-.31.58-.67.77-.67-.46.19.42-.19,1.42-.14,1.44.13.48.37.57.14.08-.5.62-.41,1,.37,1.05.6-.07.52.31.52a2.14,2.14,0,0,1,1.59.74,39.13,39.13,0,0,0,3,3.23c.35.15.73-1.27,1-1.65s.33-.41.61-.29a8.41,8.41,0,0,0,1.33-1.9c.19-.63.19-1.92.36-2.61s-.09-.63.37-.8.21-.85.55-1.08a5.33,5.33,0,0,0,1.29-1.07,1.24,1.24,0,0,0,0-1.27c-.25-.5-.33-1.11.09-1.17s2.38.08,3.05-.53A9.23,9.23,0,0,0,200.63,32c.39-1.36,1.17-2.49,1.84-2.49a4.7,4.7,0,0,1,2.88,1.74,2.73,2.73,0,0,0,2.32,1.06c.29,0,1.46,1.17,1.69,1.44a11.52,11.52,0,0,1,1.82,2.13c.17.56-.17,1.54.31,1.73s.78.06,1,1.12.44,2.86,1.36,3.87,1.26,1.31,2.09,1.5,2.76-1.08,3.26-1.89,3.37-4.74,4.6-4.79,2.09-.84,3.26-1.76,1.22.17,1.87-.39.5-1.36,1-1a4.78,4.78,0,0,0,.5.33c.5.31,1.39-.3,1.67-.36s.39-1,1.2-1.22a2.08,2.08,0,0,0,1.31-.84c.25-.33.44-.25.81-.25s.72-.42.8-1.09.06.06.7.25.64-1,1-1.05.76-.87,1.43-.81a5.92,5.92,0,0,0,1.5,0c.47-.09.78-.95,1.11-.95s.34.11.59.14.44,0,.72-.73.42-1.19.62-1.08.25.72.72,1,.72,1,1.62.64,1.5-.56,1.5-1.28-.14-1.28.25-1.76a9.94,9.94,0,0,0,1.59-2.36c.25-.76.42-1.29.92-1.34s.78-.45.86-.45.78-1.45,1.09-2a11.72,11.72,0,0,1,2.45-2.53,2,2,0,0,0,.86-1.17c.09-.2.48.08.67.11a2.79,2.79,0,0,0,1.4-.67A17.14,17.14,0,0,0,259,13.57c.2-.34,0-.62.25-.62a4.69,4.69,0,0,0,.87.06,9.32,9.32,0,0,0,2.09-1.48,3.2,3.2,0,0,0,.78-1.42c.07-.37.69-.64,1.11-.63l.14,0s.45.08,1.34-.7a15.32,15.32,0,0,0,2.78-2.59c.62-1,.9-.7,1.34-1.09a9.28,9.28,0,0,0,1.62-1.89c.25-.5.33-.86.53-1s.64.13.86.11.33-1.34.42-1.59.64-.39,1-.17a21.67,21.67,0,0,1,3.34,3.09c.17.48-.19,1.51.12,1.62s.41,0,1-.14.67,0,1.34.53a1.35,1.35,0,0,0,1.95.06A19.19,19.19,0,0,0,284.81,3c.28-.56,1.26,0,1.76-.11s1-1.09,1.47-1,1.62,1.53,2.12,1.61.75-.17,1.23-.08a8.28,8.28,0,0,1,1,.33c.75.22.36.2,1,.06s0-.53,1.17,0,1.67,1,2.79,1.06,1,0,1.44.25a2,2,0,0,0,1.87-.31c.5-.39.89-.45,1.23-.08s.44.33,1.28.33a22.66,22.66,0,0,0,3.73.14c1-.19,1.53-.89,2.59-.28a4.11,4.11,0,0,0,2,.81A20,20,0,0,1,314,6c.53.11-.08.16.87.14a6.15,6.15,0,0,1,3.26,1c1,.67,2.81,1.61,3.09,2.26a1,1,0,0,0,1.14.66,1,1,0,0,1,1,.53c.13.34.66.53.86.78s.11.5.33,1,.06,1.37.78,1.93,2.18.58,2.71.8.66.87,1.17,1.17a5.44,5.44,0,0,0,2.08.28c.62.06.76.34,1.12.87s1.23,2.75,2.26,3a3.92,3.92,0,0,0,2.75-.09,31.05,31.05,0,0,0,4.15-1.61c.67-.39,1.54.69,2.26,1s3.09,2.37,4.65,2.7,1.81-.64,3-.61,3.42.14,3.7-.11.84-1.62,1.73-1.45,4.76,3.2,5.71,3.68.92.89,1.5,1.89.59,2.73,1.81,3,2,.33,2.79,1,2.7,2.7,3.37,2.7,1.78-.47,2.48.45a12.28,12.28,0,0,0,1.59,2.09,4.9,4.9,0,0,1,1.17,1.23c.44.61.61.25,1.53.25s1.51-.14,2,.25a21.94,21.94,0,0,1,2.87,3.31,21,21,0,0,0,1.56,2.56c.2.23-.06,1.12.5,1.48a8.48,8.48,0,0,1,1.95,2.87c.59,1.23,1.9,4.4,2.73,4.9s2.15,2.34,2.93,2.54.78,0,1.06.92,1.5,3.31,1.95,3.31.66-4.4,1.7-4.15,1.33,1.62,1.58,2.26,2.2,2.2,3.51,3.59,5.94,6.75,7,7.19,2.09.17,2.95,1.09,4.07,5,4.82,5.29a10.44,10.44,0,0,1,3.06,2.84c.56.92,1.23.81,2.15,1.56s3.06,3.07,3.48,3.07-.11-.59,1-.67a4.54,4.54,0,0,1,1.84,0c.33.14.72,1,1.25,1.28s.89,1.09,1.51,1.25,1.25.39,1.33.67a1.42,1.42,0,0,0,1.14,1c.9.25,3.4.94,4.13,1.69s.92,1.15,1.73,1.26.08-.14,1.22.78,1.48,1.45,2.37,1.45,2.49,1.47,3.33,1.52,1.5-.46,2.05-.38,4.34,3.55,5,3.55,1.25-1.13,1.8-1.17,1.42,1.09,1.75,1.13.92-1.13,1.25-1.13.42.71.84.54,1.46-1.58,1.92-1.58.13.08.92.25a21.88,21.88,0,0,0,4.39.62,2.87,2.87,0,0,1,2.55,1.17c.46.67.63.42,1.25.84s.63,2.84,1.13,3.47,1.8,3.72,2.51,4a4.71,4.71,0,0,0,2,.21c.29,0,.25,1.09.25,1.09s-.25,0,.46.54,1.46,1.42,2,1.42,0,0,1.13.88.83,1.09,2,1.13,1-.84,2.22-.63a9.11,9.11,0,0,1,2.8.59c.42.33,1-.51,1.63-.26s1.17.51,1.42.34-.17-.25.92.38a9.22,9.22,0,0,0,3.09,1.37,18.88,18.88,0,0,1,3.09.8c1.59.5,1.84,1,3.26.92s3.3-.63,4.6,0,1.17-.21,2.38-.46.29-.92,1.84.33.71,1.07,1.77.85,1.62-1.11,2.9-.56,1.28,1.67,2.17,2,4.46-2.79,5.57-4,1.23-3.62,2.79-1.45,2.78,3.85,4.07,4.41,2.11,1.89,3,2.45,4.46.89,5.35,1.72.06,1.79,1.79,3.07a8.86,8.86,0,0,0,4.12,1.89c1.11.17.56-.5,3,.17s.67.73,3,1.84,2.62,1.23,3.4,1.17"/></g></g></svg>