<svg xmlns="http://www.w3.org/2000/svg" viewBox="0 0 658.93 193.78"><defs><style>.cls-1{fill:none;stroke:#fff;stroke-miterlimit:10;}</style></defs><title>makalu_8481m</title><g id="Layer_2" data-name="Layer 2"><g id="Layer_1-2" data-name="Layer 1"><path class="cls-1" d="M.07,146.45c18.83-2.82,34.59-7.41,39.62-14.11s14.91-20.12,21.53-20.56,12.09-4.77,18.27-1.86,14.82.27,23.73-5.29,37.68-29.82,42.35-34.24,36.27-27.26,43.06-29.2,8.74-1.77,10-2.74.09-1.14,2.92-1.67a22.28,22.28,0,0,1,10,.79c2.55,1,9,.71,10.14.27s8.83-4.77,12.62-8.83,6.35-8.91,8.56-9.09,7.5-.79,9.62-2.47,7.85-4.94,9-6.61,4.67-3.36,6.17-5.3,4.77-4.15,5.65-4.85,2.65.62,5.65,3.09,4.32,1.94,6.09,2.47,3.53,2.12,5.91,3.17,5.82,1.86,10.76,5.39,10.06,7.41,12,8.11,9.62,11.56,11.83,13S330.34,37,332,38s1.76,1.68,3.44,2.12-.44-.53,3.08,1.76,12.45,10,15.8,11,3.79.53,6,2.55a46.46,46.46,0,0,0,6.79,5.74c2.56,1.59.89.26,3.44,1.76s8.81,7.58,11.06,10.57l.15.2"/><path class="cls-1" d="M381.73,73.6c1.76,2.27,5.4,5.44,7.76,7.79s1,4,1.88,4.83,1.88.88,3.88,1.35,7.65,8.82,8.77,10a4.6,4.6,0,0,0,3.88,1.94c2.29.18,3.7,4.94,6.53,6.88s3.53,4.42,6,5.48,2.47.88,5.29,3.88,2.82,6.88,4.06,7.76,4.06,4.06,4.59,5.65,6,7.23,7.06,7.94a12.9,12.9,0,0,1,3.7,4.24c1.06,1.94,3.36,5.11,6,8.82s3.53,3.35,5.12,2.12,1.59-2.65,3.18-2.65a18.94,18.94,0,0,1,5.47,1.24c1.41.52,1.41,1,3,.35s.35-1.59,2.64-2.47,4.59-2.83,5.83-1.94,1.06-.36,3.53.53,26.64,21.88,26.82,24.7.71,7.59,4.59,8.65a19.36,19.36,0,0,0,9.88.53c2.83-.71,8.47.17,11.83,1.41s18.88,1.24,21.35,2.65,14.82,7.41,20.29,7.94,9-2.65,12.18-2.65,16.76,2.3,21.7,2.3,12.89-6.18,17.83-6.18,13.23-.35,18-3,6.35-5.82,9.35-6,1.41.35,4.94-1.94"/></g></g></svg>