<svg xmlns="http://www.w3.org/2000/svg" viewBox="0 0 328.53 94.76"><defs><style>.cls-1{fill:none;stroke:#fff;stroke-miterlimit:10;}</style></defs><title>Mansalu</title><g id="Layer_2" data-name="Layer 2"><g id="Layer_1-2" data-name="Layer 1"><path class="cls-1" d="M0,77.11H2.08l.58-.5,1.25.33L7,75l1.33-.5,1.08-.67,1.83.09L14,72.46l2.74-.67,5.4-3.66a5.87,5.87,0,0,1,2.41.09c1.25.33,7.57,3.9,7.57,3.9l11.3,4.41,6.14,1.66h5.24l5-2.16h1.25l2.49-1.91,1.58-.25,1.75-1.25L69.63,72l2.51-1.45,1.6-.13,2-.83,4-.5,3.74-.46,2.37-1.86.91,0,2.12-1.75h1.37l1.62-1.62,5-.25.87-.83,1-.12,7.06-7.07H107l4.73-3.94,0-.79,1.12-.33.25-.92.87-.5,3.12-3.36,1-.17.21-.75.87-.2,2.21-2.79.29-1.66,1.53-1.58.67-.41.91-1.12,7.52-5.41.92-1.41.62-.21,3.61-5.6.92.45,2.66-2.36,2.07,0,4.2-2.83,2.62-4v-.66l.79-.29,1.37-1.91,1.24,1.2,1,.13,6.4,3.15,3.2,2.37,6.35,2.16,1.79,0s12.17,8.27,12.8,8.6,4.65.12,5.19-.54,2.16-3,2.16-3h.62l.75-.92h.42l1.32.71v.38l5-3.08s.58-2,1.16-2.33,2-1.08,2-1.08l2.45-3,2.7.71.75-1.21,5-5.52-.37-3.28-.25-1,.66-.83,1.37-.41.54-3.37L218.52.63l4.24,2.9-.25,2.12,3.2,2,2.41.95,1.12,1.58,1.91,1.75.13,1.24,3.28,3.16.21,1.33,1.33.95.08,1.17,1.25.74,1.41,6.07,2,2.29,4.78,5.19,1,3.9,1.25,2.5,5.44,5.44,3.11,2.33,3.7,2.2,1.58,1.16.66,1.33,0,2,.29,1.54,1.83.37,1.29.67h1.37l2.24,1.24,1.21.46,1.29.42.7,1.28,1.25.3,1.66.37,1,1.66,2.49,0,1.33,1.08,2.32,1.33v1.75l3.74.62,1.08,1,4.08,1.87,9.63,4.4,1.21-.08.41.91,3,2,1.41.58,1.74,1.78,1.42,0,.74.66,3.83,2.28.74,1.42,1.5.08,2.16,1.54.46.45h1L325,91l.08.62,1.13.17,1,1.16.25,1.2,1.08.09"/></g></g></svg>