<svg xmlns="http://www.w3.org/2000/svg" viewBox="0 0 301.32 124.26"><defs><style>.cls-1{fill:none;stroke:#fff;stroke-miterlimit:10;}</style></defs><title>NangaParbat</title><g id="Layer_2" data-name="Layer 2"><g id="Layer_1-2" data-name="Layer 1"><polyline class="cls-1" points="301.1 123.81 293.5 120.11 292.55 118.1 291.16 117.95 290.56 118.92 290.17 118.77 289.52 117.51 288.18 117.36 285.64 114.1 284.4 114.03 282.81 114.69 279.78 111.5 275.9 109.58 270.19 104.39 268 101.49 267.41 99.2 263.83 94.89 262.04 94.97 251.85 80.36 251.95 79.25 250.76 77.62 248.57 77.32 246.44 74.5 246.59 72.28 242.91 67.68 239.28 67.31 237.19 63.31 235.26 62.42 233.62 63.09 232.97 61.23 232.62 58.34 231.28 57.23 230.49 58.56 228.4 58.34 228.3 57.67 227.21 56.78 225.96 55.38 224.27 55.97 223.23 55.45 222.49 53.15 218.11 55.15 210.86 40.32 205.09 30.39 202.31 26.46 201.07 27.05 199.73 27.05 198.58 25.2 197.54 25.57 196.35 21.86 195 20.01 194.16 20.6 193.37 19.49 192.17 18.08 191.23 18.75 190.43 18.45 190.13 16.08 189.24 13.71 187.55 13.63 186.51 15.26 185.31 14.3 185.02 10.37 184.57 9.7 183.43 8.66 182.93 6.44 181.34 3.77 180.34 3.77 179 4.51 174.03 0.66 171.55 2.95 170.56 2.88 170.11 3.84 166.68 3.77 162.56 4.07 160.17 7.92 159.03 8 156.89 9.55 150.23 17.11 148.69 16.6 147.8 16.6 147 17.56 146.5 15.71 143.47 12.96 141.83 15.26 141.09 15.26 140.24 16.82 139.3 17.11 138.9 16 135.77 16.89 133.98 19.41 127.03 23.49 123.6 22.6 117.73 19.34 115.69 19.41 114.4 20.38 112.02 20.53 111.07 22.01 110.43 20.82 108.29 20.9 107.15 22.75 105.91 20.75 101.78 20.75 100.24 23.49 97.51 24.31 95.47 27.27 93.48 28.24 92.49 29.94 90.25 31.05 88.36 31.5 86.92 34.69 85.93 34.61 85.43 33.87 83.94 33.87 81.26 37.06 80.26 37.51 76.29 49.3 72.91 54.71 72.46 52.63 69.38 52.41 68.83 54.41 66.2 57.67 65.01 60.27 64.06 58.79 61.58 61.83 60.34 61.75 52.93 72.06 51.74 70.69 48.31 74.47 44.73 71.8 26.84 100.83 22.3 103.94 19.39 105.61 15.52 104.83 14.47 103.5 12.68 104.39 4.48 105.5 4.04 103.39 1.73 103.05 0.46 100.16"/></g></g></svg>