<svg xmlns="http://www.w3.org/2000/svg" viewBox="0 0 49.03 566.56"><defs><style>.cls-1{opacity:0.99;}.cls-2{opacity:0.94;}.cls-2,.cls-3{font-size:6px;fill:#fff;font-family:RobotoMono-Light, Roboto Mono;font-weight:300;letter-spacing:0.05em;}.cls-4{fill:none;stroke:#fff;stroke-miterlimit:10;stroke-width:0.3px;}</style></defs><title>ruler</title><g id="Layer_2" data-name="Layer 2"><g id="Layer_1-2" data-name="Layer 1"><g class="cls-1"><text class="cls-2" transform="translate(18.42 493.9)">8100</text><text class="cls-2" transform="translate(18.42 548.26)">8000</text><text class="cls-3" transform="translate(18.42 439.35)">8200</text><text class="cls-2" transform="translate(18.42 384.8)">8300</text><text class="cls-2" transform="translate(18.42 329.25)">8400</text><text class="cls-3" transform="translate(18.42 275.7)">8500</text><text class="cls-2" transform="translate(18.42 223.15)">8600</text><text class="cls-2" transform="translate(18.42 167.6)">8700</text><text class="cls-2" transform="translate(18.42 113.23)">8800</text><text class="cls-2" transform="translate(18.42 59.68)">8900</text><text class="cls-2" transform="translate(18.42 5.13)">9000</text></g><line class="cls-4" x1="12.73" y1="3.29" y2="3.29"/><line class="cls-4" x1="5.02" y1="8.72" y2="8.72"/><line class="cls-4" x1="5.02" y1="14.14" y2="14.14"/><line class="cls-4" x1="5.02" y1="19.57" y2="19.57"/><line class="cls-4" x1="5.02" y1="25" y2="25"/><line class="cls-4" x1="5.02" y1="30.42" y2="30.42"/><line class="cls-4" x1="5.02" y1="35.85" y2="35.85"/><line class="cls-4" x1="5.02" y1="41.27" y2="41.27"/><line class="cls-4" x1="5.02" y1="46.7" y2="46.7"/><line class="cls-4" x1="5.02" y1="52.12" y2="52.12"/><line class="cls-4" x1="12.73" y1="57.73" y2="57.73"/><line class="cls-4" x1="5.02" y1="63.16" y2="63.16"/><line class="cls-4" x1="5.02" y1="68.59" y2="68.59"/><line class="cls-4" x1="5.02" y1="74.01" y2="74.01"/><line class="cls-4" x1="5.02" y1="79.44" y2="79.44"/><line class="cls-4" x1="5.02" y1="84.86" y2="84.86"/><line class="cls-4" x1="5.02" y1="90.29" y2="90.29"/><line class="cls-4" x1="5.02" y1="95.71" y2="95.71"/><line class="cls-4" x1="5.02" y1="101.14" y2="101.14"/><line class="cls-4" x1="5.02" y1="106.56" y2="106.56"/><line class="cls-4" x1="12.73" y1="112.18" y2="112.18"/><line class="cls-4" x1="5.02" y1="117.6" y2="117.6"/><line class="cls-4" x1="5.02" y1="123.03" y2="123.03"/><line class="cls-4" x1="5.02" y1="128.45" y2="128.45"/><line class="cls-4" x1="5.02" y1="133.88" y2="133.88"/><line class="cls-4" x1="5.02" y1="139.3" y2="139.3"/><line class="cls-4" x1="5.02" y1="144.73" y2="144.73"/><line class="cls-4" x1="5.02" y1="150.15" y2="150.15"/><line class="cls-4" x1="5.02" y1="155.58" y2="155.58"/><line class="cls-4" x1="5.02" y1="161.01" y2="161.01"/><line class="cls-4" x1="12.73" y1="166.62" y2="166.62"/><line class="cls-4" x1="5.02" y1="172.04" y2="172.04"/><line class="cls-4" x1="5.02" y1="177.47" y2="177.47"/><line class="cls-4" x1="5.02" y1="182.89" y2="182.89"/><line class="cls-4" x1="5.02" y1="188.32" y2="188.32"/><line class="cls-4" x1="5.02" y1="193.74" y2="193.74"/><line class="cls-4" x1="5.02" y1="199.17" y2="199.17"/><line class="cls-4" x1="5.02" y1="204.6" y2="204.6"/><line class="cls-4" x1="5.02" y1="210.02" y2="210.02"/><line class="cls-4" x1="5.02" y1="215.45" y2="215.45"/><line class="cls-4" x1="12.73" y1="221.06" y2="221.06"/><line class="cls-4" x1="5.02" y1="226.48" y2="226.48"/><line class="cls-4" x1="5.02" y1="231.91" y2="231.91"/><line class="cls-4" x1="5.02" y1="237.33" y2="237.33"/><line class="cls-4" x1="5.02" y1="242.76" y2="242.76"/><line class="cls-4" x1="5.02" y1="248.19" y2="248.19"/><line class="cls-4" x1="5.02" y1="253.61" y2="253.61"/><line class="cls-4" x1="5.02" y1="259.04" y2="259.04"/><line class="cls-4" x1="5.02" y1="264.46" y2="264.46"/><line class="cls-4" x1="5.02" y1="269.89" y2="269.89"/><line class="cls-4" x1="12.73" y1="274.19" y2="274.19"/><line class="cls-4" x1="5.02" y1="279.61" y2="279.61"/><line class="cls-4" x1="5.02" y1="285.04" y2="285.04"/><line class="cls-4" x1="5.02" y1="290.47" y2="290.47"/><line class="cls-4" x1="5.02" y1="295.89" y2="295.89"/><line class="cls-4" x1="5.02" y1="301.32" y2="301.32"/><line class="cls-4" x1="5.02" y1="306.74" y2="306.74"/><line class="cls-4" x1="5.02" y1="312.17" y2="312.17"/><line class="cls-4" x1="5.02" y1="317.59" y2="317.59"/><line class="cls-4" x1="5.02" y1="323.02" y2="323.02"/><line class="cls-4" x1="12.73" y1="328.63" y2="328.63"/><line class="cls-4" x1="5.02" y1="334.06" y2="334.06"/><line class="cls-4" x1="5.02" y1="339.48" y2="339.48"/><line class="cls-4" x1="5.02" y1="344.91" y2="344.91"/><line class="cls-4" x1="5.02" y1="350.33" y2="350.33"/><line class="cls-4" x1="5.02" y1="355.76" y2="355.76"/><line class="cls-4" x1="5.02" y1="361.18" y2="361.18"/><line class="cls-4" x1="5.02" y1="366.61" y2="366.61"/><line class="cls-4" x1="5.02" y1="372.04" y2="372.04"/><line class="cls-4" x1="5.02" y1="377.46" y2="377.46"/><line class="cls-4" x1="12.73" y1="383.07" y2="383.07"/><line class="cls-4" x1="5.02" y1="388.5" y2="388.5"/><line class="cls-4" x1="5.02" y1="393.92" y2="393.92"/><line class="cls-4" x1="5.02" y1="399.35" y2="399.35"/><line class="cls-4" x1="5.02" y1="404.77" y2="404.77"/><line class="cls-4" x1="5.02" y1="410.2" y2="410.2"/><line class="cls-4" x1="5.02" y1="415.63" y2="415.63"/><line class="cls-4" x1="5.02" y1="421.05" y2="421.05"/><line class="cls-4" x1="5.02" y1="426.48" y2="426.48"/><line class="cls-4" x1="5.02" y1="431.9" y2="431.9"/><line class="cls-4" x1="12.73" y1="437.51" y2="437.51"/><line class="cls-4" x1="5.02" y1="442.94" y2="442.94"/><line class="cls-4" x1="5.02" y1="448.36" y2="448.36"/><line class="cls-4" x1="5.02" y1="453.79" y2="453.79"/><line class="cls-4" x1="5.02" y1="459.22" y2="459.22"/><line class="cls-4" x1="5.02" y1="464.64" y2="464.64"/><line class="cls-4" x1="5.02" y1="470.07" y2="470.07"/><line class="cls-4" x1="5.02" y1="475.49" y2="475.49"/><line class="cls-4" x1="5.02" y1="480.92" y2="480.92"/><line class="cls-4" x1="5.02" y1="486.34" y2="486.34"/><line class="cls-4" x1="12.73" y1="491.95" y2="491.95"/><line class="cls-4" x1="12.73" y1="546.31" y2="546.31"/><line class="cls-4" x1="5.02" y1="497.38" y2="497.38"/><line class="cls-4" x1="5.02" y1="502.81" y2="502.81"/><line class="cls-4" x1="5.02" y1="508.23" y2="508.23"/><line class="cls-4" x1="5.02" y1="513.66" y2="513.66"/><line class="cls-4" x1="5.02" y1="519.08" y2="519.08"/><line class="cls-4" x1="5.02" y1="524.51" y2="524.51"/><line class="cls-4" x1="5.02" y1="529.93" y2="529.93"/><line class="cls-4" x1="5.02" y1="535.36" y2="535.36"/><line class="cls-4" x1="5.02" y1="540.79" y2="540.79"/></g></g></svg>