<svg xmlns="http://www.w3.org/2000/svg" viewBox="0 0 329.29 59.62"><defs><style>.cls-1{fill:none;stroke:#fff;stroke-miterlimit:10;}</style></defs><title>Shishapangma</title><g id="Layer_2" data-name="Layer 2"><g id="Layer_1-2" data-name="Layer 1"><path class="cls-1" d="M.3,59.22l10.15-7.59,3.24-.85,8.7-6.91,1.7-.94,1.62-2,1.79-.59,3.93-3.75,1.19-.18,1.45-2.47,2.65-1.79,2-3.24-.08-1,.85-.6,3.75-6.82,1.11.08L46,22.8H47l2.22,1.71,4.18,1.71,1-.26,2.39,1.54L58,27.32l1.28,1,2,.51,3.15.77,1.2,1.7,1.7.69h1.79l2,1.1,2.56,1.28.6.86,2,1,2.9,1.36,7.59,3.93v.85l1.7,1.11,10.58-.6s7.25-1.79,8.53-2.9c0,0,1.19-2,6.9-2.47s16-.77,16.46-.77c0,0,7.08-1.45,11-3.84a45.43,45.43,0,0,0,4.6-3l.68-2.82,1.54-.85.6-1.62,3.07-2.47.51-1h2.39l1.87-2.13,3.67-.25,6.82-2.05,9-2.81,15.44-5.55,3.15-2.81,3.59-1.2,1.62-1.62L203.62,2l6.73.59,1.54-1.7,2.47.08,1.45-.42,1.79,1.19.68,1.19,1.28.17.52,1.28,2.21.09L223,2.93l1.7-.17,1.45-.42.68.34,2.65-.77,2.13.77L232.78,4h.86l2.64,2.21,3,.6,1.8-.17,2.21,1.19,3.33,1,2.47.6,2.82-.09,2.81,2,2.9.34,3.67,4.61,4.26,2L269.2,25l4,.26,1.53,2.47,1.71.77,1.28,2.56,5,.68.68.34,4.35.09,1.28.59L294,33l.17.43.59.85h1.62l3.93.34.42.68,3.42-.08,1.36.25,3.24-.51,1.62,1.71L312,37l.77,1.2.34.34.34.76,3.16,2.14,2.47-.09L324.63,44l1.45,1.63,3,1.45"/></g></g></svg>